SplineFontDB: 3.2
FontName: MirnaVidovic
FullName: MirnaVidovic
FamilyName: MirnaVidovic
Weight: Regular
Copyright: Copyright (c) 2025, mirna_38b3jrr
UComments: "2025-3-18: Created with FontForge (http://fontforge.org)"
Version: 001.000
ItalicAngle: 0
UnderlinePosition: -100
UnderlineWidth: 50
Ascent: 800
Descent: 200
InvalidEm: 0
LayerCount: 3
Layer: 0 0 "Stra+AX4A-nji" 1
Layer: 1 0 "Prednji" 0
Layer: 2 0 "Stra+AX4A-nji 2" 1
XUID: [1021 927 -573933176 12231]
StyleMap: 0x0000
FSType: 0
OS2Version: 0
OS2_WeightWidthSlopeOnly: 0
OS2_UseTypoMetrics: 1
CreationTime: 1742309931
ModificationTime: 1745243769
OS2TypoAscent: 0
OS2TypoAOffset: 1
OS2TypoDescent: 0
OS2TypoDOffset: 1
OS2TypoLinegap: 90
OS2WinAscent: 0
OS2WinAOffset: 1
OS2WinDescent: 0
OS2WinDOffset: 1
HheadAscent: 0
HheadAOffset: 1
HheadDescent: 0
HheadDOffset: 1
OS2Vendor: 'PfEd'
Lookup: 258 0 0 "va" { "va-1" [150,15,0] } []
Lookup: 258 0 0 "na" { "na-1" [150,15,0] } []
MarkAttachClasses: 1
DEI: 91125
KernClass2: 1 1 "va-1"
 0 {}
KernClass2: 1 1 "na-1"
 0 {}
Encoding: iso8859-2
UnicodeInterp: none
NameList: AGL For New Fonts
DisplaySize: -48
AntiAlias: 1
FitToEm: 0
WinInfo: 0 28 10
BeginPrivate: 0
EndPrivate
BeginChars: 256 21

StartChar: M
Encoding: 77 77 0
Width: 485
Flags: HW
LayerCount: 3
Fore
SplineSet
16 690 m 5
 -10.9521484375 301.579101562 13.884765625 193.293945312 28 14 c 5
 56.8046875 -3.4169921875 118.495117188 -9.91015625 151 20 c 1
 152.772460938 143.0234375 87 429 138 446 c 1
 177 431 174.461914062 332.643554688 193 299 c 1
 207.369140625 265.766601562 264 266.916992188 277 302 c 1
 281.173828125 333.638671875 300.6953125 410.184570312 334 434 c 1
 388 415 326.19921875 148.186523438 333 24 c 1
 363.001953125 -11 406 -4 442 14 c 1
 460.544921875 263.09765625 460 464 458 672 c 1
 437 700.896484375 354.282226562 697.333007812 343 666 c 1
 326.47265625 608.782226562 299.227539062 545.892578125 260 496 c 1
 260 496 228.990234375 451.794921875 207 494 c 1
 166.434570312 538.46875 122.579101562 629.762695312 114 678 c 1
 112.247070312 710.95703125 38.2001953125 717.688476562 16 690 c 5
EndSplineSet
EndChar

StartChar: V
Encoding: 86 86 1
Width: 574
Flags: W
VStem: 25 138<546.961 697.247> 427 126<626.438 685.202>
LayerCount: 3
Fore
SplineSet
25 690 m 1
 58.7607421875 424.768554688 110.959960938 221.139648438 166 27 c 1
 209.99609375 -25.6015625 258.408203125 6.87890625 295 18 c 1
 380.887695312 238 505.62890625 458 553 678 c 1
 511 732 445 726 427 696 c 5
 386.877929688 568.081054688 340.954101562 367.120117188 247 207 c 1
 191.303710938 352.19921875 171.573242188 572.881835938 163 726 c 5
 160 756 89.1044921875 770.22265625 25 690 c 1
EndSplineSet
EndChar

StartChar: i
Encoding: 105 105 2
Width: 193
Flags: W
VStem: 22 144<52.8778 429> 23 136<495.684 605.999>
LayerCount: 3
Fore
SplineSet
31 493 m 1x40
 10.4858673798 550.777092692 16.4780349279 575.406735986 23 591 c 1
 17 620 113 637 153 606 c 1
 181 607 174.935546875 542.045898438 159 498 c 1
 129 479 72 485 31 493 c 1x40
21 426 m 1
 75.947265625 459.043945312 123.944335938 458.307617188 171 453 c 1
 184.58984375 273.13671875 160.138671875 121.815429688 166 102 c 4
 197.171875 -3.3876953125 45.8154296875 -39.0546875 22 72 c 4x80
 19.5849609375 83.2626953125 33.9560546875 235.024414062 21 426 c 1
EndSplineSet
EndChar

StartChar: r
Encoding: 114 114 3
Width: 334
Flags: HW
VStem: 43 93<323.451 463.52> 55 96<19.5328 237.444>
LayerCount: 3
Fore
SplineSet
55 36 m 1x40
 51 246 46 109 17 504 c 1
 63.4091796875 555.45703125 109 536 131 490 c 1x80
 134 445 127.176757812 442 138 395 c 1
 157.557617188 434.533203125 154.213867188 412.529296875 199 474 c 1
 273.895507812 538.676757812 321.116210938 448.650390625 309 466 c 1
 324.506835938 459.115234375 318 376 270 391 c 1
 291 379 164.232421875 390.19140625 172 310 c 5
 172.516601562 322.735351562 165.330078125 52.9599609375 164 37 c 4
 161 1 61.1455078125 -36.068359375 55 36 c 1x40
EndSplineSet
EndChar

StartChar: n
Encoding: 110 110 4
Width: 528
Flags: HW
LayerCount: 3
Fore
SplineSet
30 348 m 17
 28.6796875 209.385742188 27.73828125 200.368164062 24 54 c 1
 30.2626953125 -6.7255859375 147 -6 141 51 c 1
 159 225 l 1
 216.553710938 367.94140625 378.052734375 313.618164062 384 204 c 1
 369 36 l 1
 407 -50.5146484375 495 21 495 39 c 1
 510 141 507 342 456 369 c 1
 378 459 262.283203125 492.08203125 141 396 c 1
 141 468 l 1
 120 540 39 522 27 486 c 9
 30 348 l 17
EndSplineSet
EndChar

StartChar: a
Encoding: 97 97 5
Width: 516
Flags: HW
LayerCount: 3
Fore
SplineSet
132.836914062 308 m 1
 191.407226562 380.44921875 290.16796875 364.63671875 322.836914062 318 c 1
 352.836914062 280 352.836914062 212 328.836914062 166 c 1
 294.836914062 108 184.836914062 100 132.836914062 170 c 1
 103.484375 210.885742188 116.249023438 294.657226562 132.836914062 308 c 1
477.836914062 38 m 1
 498.836914062 209 494.836914062 263 479.836914062 455 c 1
 455.836914062 503 383.836914062 506 359.836914062 476 c 1
 341.836914062 428 l 1
 263.836914062 512 109.836914062 449 58.8369140625 404 c 1
 -27.2451171875 299 -5.5732421875 192 58.8369140625 72 c 1
 190.271484375 -31.7900390625 297.225585938 19.30859375 354.836914062 77 c 1
 363.836914062 35 l 1
 407.8359375 -19.8466796875 447.836914062 17 477.836914062 38 c 1
EndSplineSet
EndChar

StartChar: d
Encoding: 100 100 6
Width: 544
Flags: HW
LayerCount: 3
Fore
SplineSet
164 309 m 1
 206 343 274 349 324 305 c 1
 372 293 364 147 326 159 c 1
 336 119 218.203125 82.580078125 158 169 c 1
 120 225 142 293 164 309 c 1
376 413 m 1
 314 475 160 469 100 415 c 1
 -2 345 -2 115 74 57 c 1
 145.385742188 -17.49609375 321 -2 377 58 c 1
 399 92 l 1
 402 67 l 1
 399 0 505 24 502 51 c 0
 501.779296875 52.98828125 502 665 502 665 c 1
 480 701 430 707 399 680 c 1
 376 413 l 1
EndSplineSet
EndChar

StartChar: o
Encoding: 111 111 7
Width: 555
Flags: W
LayerCount: 3
Fore
SplineSet
160 337 m 1
 208 394 349 397 394 340 c 1
 427 283 442 208 400 148 c 1
 379 115 298 64 184 136 c 1
 121 175 118 280 160 337 c 1
71 430 m 1
 30 368 -36 220 68 78 c 1
 170 -34 430 -24 500 70 c 1
 538 122 576 336 509 415 c 1
 482 469 208 574 71 430 c 1
EndSplineSet
EndChar

StartChar: v
Encoding: 118 118 8
Width: 394
Flags: HW
LayerCount: 3
Fore
SplineSet
16 448 m 1
 137 28 l 1
 167 -2 251 0 263 36 c 1
 376 441 l 1
 358 474 275 498 257 459 c 1
 254 390 238 252 211 213 c 1
 178 231 142.458984375 393 121 465 c 1
 103.598632812 489.974609375 28.0810546875 475.538085938 16 448 c 1
EndSplineSet
EndChar

StartChar: cacute
Encoding: 230 263 9
Width: 455
Flags: HW
LayerCount: 3
Fore
SplineSet
219 471 m 1
 114 471 8 341 2 215 c 1
 -13.5009765625 92.4921875 126 27 216 9 c 1
 363.520507812 5.625 414 84 432 153 c 1
 453 174 409.2734375 212.653320312 378 215 c 1
 318 170 329 124 242 121 c 1
 187.301757812 109.532226562 95.1943359375 182.366210938 114 219 c 1
 101.623046875 267.146484375 182 339 218 345 c 1
 260 363 303 342 348 318 c 1
 348 318 405 357 387 384 c 1
 354 444 291.8046875 470.674804688 219 471 c 1
323 657 m 1
 298.26953125 606 250.434570312 585 251 543 c 1
 248 525 320 483 350 501 c 1
 425 606 428 618 404 627 c 1
 368 666 362 666 323 657 c 1
EndSplineSet
EndChar

StartChar: Scaron
Encoding: 169 352 10
Width: 501
Flags: HW
LayerCount: 3
Fore
SplineSet
119 927 m 1
 156.22265625 858.799804688 178.58203125 844.104492188 203 822 c 1
 233 794.411132812 268 795 293 816 c 1
 323.000976562 851.385742188 340.2421875 892.658203125 353 936 c 1
 364 957 313 990.206054688 293 951 c 1
 266 900 278.389648438 916.299804688 266 900 c 1
 253 882 l 17
 233.677734375 891.701171875 205.227539062 934.634765625 194 960 c 1
 163 972 130 963 119 927 c 1
234 764 m 5
 116 759 59 708 44 593 c 5
 62 390 332 327 356 258 c 1
 385 186 335 99 267 110 c 1
 182 123 117 251 117 251 c 1
 78 305 5 290 3 245 c 1
 76.078125 122.658203125 130 0 268 -21 c 1
 415 -30 501 189 464 264 c 5
 437 384 261 482 174 545 c 1
 140.596679688 589.666992188 213 656 249 647 c 1
 285.797851562 643.806640625 342 599 381 551 c 1
 423.765625 542.719726562 462 563 462 605 c 1
 411 677 282 770 234 764 c 5
EndSplineSet
EndChar

StartChar: scaron
Encoding: 185 353 11
Width: 440
Flags: HW
LayerCount: 3
Fore
SplineSet
141 641 m 1
 210 560 l 1
 239 526.849609375 270 521 276 548 c 1
 327 641 l 1
 335.983398438 676.043945312 261.958007812 674.16015625 258 647 c 0
 257.567382812 644.03125 258 647 258 647 c 1
 261 614 210.013671875 647 222 647 c 1
 222 647 l 1
 189 668 163.944335938 671.938476562 141 641 c 1
227 488 m 1
 158 484 70 440 74 335 c 1
 96 246 236 198 297 162 c 1
 286.56640625 122.041992188 282 87 222 81 c 1
 174 86 119 135 119 165 c 1
 56.2724609375 190.911132812 44 146 44 128 c 1
 115.568359375 14.6533203125 184 0 244 0 c 1
 302 0 382 68 382 162 c 1
 374 212 236 314 190 334 c 1
 160 374 210 404 236 392 c 1
 275.304642722 394.259658284 313.668835936 356.427300505 351 323 c 1
 374 305.345703125 390 332 390 365 c 1
 360 440 298 492 227 488 c 1
EndSplineSet
EndChar

StartChar: Cacute
Encoding: 198 262 12
Width: 601
Flags: HW
LayerCount: 3
Fore
SplineSet
389 1007 m 5
 375.006835938 980.967773438 331.9453125 894.241210938 303 861 c 1
 320 843 369 819 394 807 c 1
 427.12109375 834 467.14453125 926 486 953 c 5
 486 971 422 1007 389 1007 c 5
545.004882812 679.889648438 m 1
 458.174804688 751.434570312 371.87109375 785.73828125 295 786 c 1
 137.84765625 761.7890625 89.162109375 685.319335938 44.251953125 616.739257812 c 1
 -19.0390625 397.368164062 9 282 41.251953125 166.919921875 c 1
 81 60 219 9 280 9 c 1
 402 9 477 78 583.915039062 239.309570312 c 1
 570 282 546.983398438 293.95703125 488.8671875 276.029296875 c 1
 440.396484375 200.829101562 360 129 279 135 c 1
 243 135 211.047851562 149.55078125 186 192 c 1
 153 237 136.170782695 480.795716891 159.802734375 531.090820312 c 0
 195 606 286.579101562 615.682617188 286.047851562 617.55078125 c 1
 359.365234375 621.090820312 428.987304688 622.739257812 466.412109375 565.58984375 c 1
 519 558 561 636 545.004882812 679.889648438 c 1
EndSplineSet
EndChar

StartChar: Ccaron
Encoding: 200 268 13
Width: 559
Flags: HW
LayerCount: 3
Fore
SplineSet
303 764 m 1
 240 773 78 767 55 663 c 1
 0 530 18 215 69 155 c 1
 84 53 277 0 334 5 c 1
 448 0 526 119 541 197 c 1
 528.345703125 245.028320312 508 284 466 272 c 1
 424 170 288 134 207 194 c 1
 123 329 123 518 207 596 c 1
 312 662 426 584 453 536 c 1
 507.446289062 549.421875 519 578 513 617 c 1
 471 698 402.66796875 742.295898438 303 764 c 1
166 1005 m 1
 190.635742188 947 215.354492188 889 247 831 c 1
 283 804.653320312 325 816 355 831 c 1
 379 888 409.916992188 935 412 987 c 1
 400 1017 370.823242188 1026.90234375 340 1017 c 1
 331.415039062 986.64453125 331.286132812 958.857421875 298 921 c 1
 242.057617188 956 249.133789062 991 229 1026 c 1
 211 1038 180.857421875 1026.33300781 166 1005 c 1
EndSplineSet
EndChar

StartChar: ccaron
Encoding: 232 269 14
Width: 376
Flags: HW
LayerCount: 3
Fore
SplineSet
214 472 m 1
 161 479.57421875 60 447.415039062 30 386 c 1
 0 355 -4 149 20 125 c 1
 52 43 162 9 222 0 c 1
 338 15 356 93 366 149 c 1
 354 182 312.896484375 202.341796875 288 187 c 1
 284 145 246.486328125 116.797851562 208 121 c 1
 164.461914062 122.756835938 117.5234375 134.793945312 109 168 c 1
 83.7724609375 191.818359375 98 285 119 318 c 1
 133 347 148 355 196 364 c 1
 233.032226562 356.877929688 258.834960938 327.604492188 289 304 c 1
 313.53125 289.884765625 343 310 343 340 c 1
 340 382 277.51953125 456.046875 214 472 c 1
62 616 m 1
 71 550 110 532 143 511 c 1
 183 492.319335938 176 511 212 526 c 1
 248 559 264.989257812 579 272 628 c 1
 245 649 238.506835938 653.932617188 200 628 c 1
 190.639648438 599.78515625 193.916015625 572.6796875 170 573 c 1
 130.881835938 576.213867188 143.803710938 608.647460938 119 640 c 1
 83.0498046875 639.733398438 75.0830078125 626.69921875 62 616 c 1
EndSplineSet
EndChar

StartChar: Zcaron
Encoding: 174 381 15
Width: 634
Flags: HW
LayerCount: 3
Fore
SplineSet
40 735 m 1
 16 708 15.7001953125 652 31 612 c 1
 152.896484375 628.198242188 313 636 394 603 c 1
 256 465 121.126953125 275 34 123 c 1
 9.09375 82 1 27 22 0 c 1
 197.943359375 -16.9951171875 373 -15 547 0 c 1
 567.8984375 46 570.8984375 92 556 138 c 1
 475 129 286 114 226 135 c 1
 289 273 448 462 544 585 c 1
 592 618 616 696 598 735 c 1
 496 750 204.08984375 767.672851562 40 735 c 1
199 969 m 1
 220 924 259 849 298 831 c 1
 349 807 349 810 388 819 c 1
 420.133789062 826.220703125 480.384765625 956.58984375 499 969 c 0
 499 969 433 1023 403 990 c 1
 394.016601562 958.975585938 376.478515625 920.333007812 358 903 c 1
 358 903 344 897 328 897 c 1
 299.719726562 920.721679688 292 972 265 1002 c 1
 229 1014 203.544921875 982.91015625 199 969 c 1
EndSplineSet
EndChar

StartChar: zcaron
Encoding: 190 382 16
Width: 451
Flags: HW
LayerCount: 3
Fore
SplineSet
49 444 m 1
 30.79296875 415 36.75 386 43 357 c 1
 109 359.997070312 232 384 277 363 c 1
 198.29296875 315.099609375 100.823242188 210.954101562 46 135 c 1
 34.6591796875 134.998046875 1.671875 47.548828125 49 39 c 0
 144.334960938 21.7802734375 262.888671875 26.1591796875 367 39 c 1
 390.594726562 74 387.654296875 109 382 144 c 1
 304.327148438 129.997070312 231.853515625 121.908203125 178 135 c 1
 221.165039062 210.741210938 325 303 397 348 c 1
 430 372 424 423 400 444 c 1
 274 477 169 462 49 444 c 1
139 636 m 1
 147.270507812 586 157.8203125 575 193 525 c 1
 238.764648438 492.672851562 260.112304688 489.192382812 307 516 c 1
 346 552 354.810546875 587 355 636 c 1
 352 663 305 682.19140625 280 660 c 1
 266.69921875 627 286.126953125 594 256 561 c 1
 235 570 l 1
 201.6875 599.47265625 222.827148438 629.557617188 208 666 c 1
 157.845703125 674.176757812 150.499023438 653.698242188 139 636 c 1
EndSplineSet
EndChar

StartChar: Dcroat
Encoding: 208 272 17
Width: 580
Flags: HW
LayerCount: 3
Fore
SplineSet
208 150 m 1
 187.788085938 210 188.529296875 276 187 348 c 1
 199.645507812 356.916992188 227.142578125 346.94921875 245 348 c 0
 279 350 280 464 254 480 c 0
 232.77734375 493.060546875 204.515625 489.631835938 193 483 c 1
 183.513671875 547 169 594 196 642 c 1
 220 696 346 681 364 651 c 1
 424 612 426 594 427 561 c 1
 455.116210938 491.127929688 453.3671875 316.452148438 424 210 c 1
 414.690429688 177.974609375 424.250976562 145.375 391 147 c 1
 364 108 274 93 208 150 c 1
91 777 m 1
 98 681 95.0341796875 581.416015625 94 483 c 1
 71 490 37.4453125 492.384765625 23 474 c 0
 1 446 16 349 32 351 c 0
 62.82421875 354.853515625 79 355 97 348 c 1
 80.8984375 336.625976562 101.381835938 -10.9296875 126 0 c 0
 129.958007812 1.7568359375 433.217773438 -2.6572265625 424 0 c 1
 471 24 529.859375 65.9521484375 541 159 c 1
 555 261 570 525 532 636 c 1
 522 696 514 747 454 780 c 1
 385 822 172 822 91 777 c 1
EndSplineSet
EndChar

StartChar: dcroat
Encoding: 240 273 18
Width: 583
Flags: HW
LayerCount: 3
Fore
SplineSet
136 156 m 1
 103 180 116.803710938 243 142 276 c 1
 169 294 232 291 274 264 c 1
 307 243 304 153 271 135 c 1
 238 108 160 123 136 156 c 1
361 762 m 1
 346 615 l 0
 307 613.58984375 268 619.703125 229 609 c 0
 192.604492188 599.01171875 197.109375 525 229 525 c 0
 259 525 288.243164062 531.638671875 317.865234375 513 c 0
 313 336 l 1
 235 378 142 402 67 330 c 1
 -20.751953125 229.916992188 16 126 55 75 c 1
 115 21 226 30 304 63 c 1
 328.087890625 79 336.435546875 95 346 111 c 1
 364 87 362 74 370 58 c 1
 380 28 440 19 445 59 c 1
 459 177 438.206054688 354 444.060546875 501 c 0
 445.375 534.004882812 504 519 534 504 c 0
 579.842773438 481.079101562 562.309570312 589.893554688 537 606 c 0
 504 627 472.841796875 619.439453125 447.211914062 615 c 0
 463 747 l 1
 436 777 403 787.399414062 361 762 c 1
EndSplineSet
EndChar

StartChar: p
Encoding: 112 112 19
Width: 430
Flags: HW
LayerCount: 3
Fore
SplineSet
156 207 m 5
 117 219 117 330 159 366 c 5
 207 402 279 357 300 324 c 5
 300 324 315 225 267 207 c 4
 229.208984375 192.828125 198 180 156 207 c 5
39 462 m 0
 -12 426 45 -165 60 -183 c 0
 75 -201 186 -207 195 -177 c 0
 204 -147 190.02734375 38.673828125 189 51 c 0
 183 123 411 69 411 285 c 0
 411 501 77.2841796875 489.024414062 39 462 c 0
EndSplineSet
EndChar

